<svg width="32" height="32" viewBox="0 0 32 32" fill="black" xmlns="http://www.w3.org/2000/svg">
  <path fill-rule="evenodd" clip-rule="evenodd"
    d="M23.836 5.33366C23.439 5.33366 23.0582 5.49138 22.7775 5.77211L6.76284 21.7868C6.6044 21.9451 6.48815 22.1411 6.42532 22.3561C6.4253 22.3562 6.42535 22.356 6.42532 22.3561L5.64861 25.0181L8.31056 24.2413L8.31124 24.2411C8.52658 24.1784 8.72263 24.0624 8.88124 23.9038L24.8945 7.8892C25.1753 7.60846 25.333 7.22766 25.333 6.83064C25.333 6.43361 25.1753 6.05285 24.8946 5.77211C24.6138 5.49138 24.2331 5.33366 23.836 5.33366ZM20.8919 3.8865C21.6727 3.10566 22.7318 2.66699 23.836 2.66699C24.9403 2.66699 25.9993 3.10566 26.7802 3.8865C27.561 4.66733 27.9997 5.72637 27.9997 6.83064C27.9997 7.93491 27.561 8.99395 26.7802 9.77478L10.7669 25.7894C10.2912 26.265 9.70328 26.6131 9.0575 26.8013C9.05728 26.8013 9.05705 26.8014 9.05682 26.8015L5.22817 27.9186C4.88397 28.019 4.51898 28.025 4.17167 27.9361C3.82436 27.8471 3.50735 27.6664 3.25382 27.4129C3.00029 27.1593 2.81958 26.8423 2.7306 26.495C2.64162 26.1477 2.64764 25.7828 2.74803 25.4386L3.8654 21.6092C4.05381 20.964 4.40185 20.3764 4.87722 19.9012C4.87713 19.9012 4.87731 19.9011 4.87722 19.9012L20.8919 3.8865ZM14.6667 26.6666C14.6667 25.9303 15.2637 25.3333 16 25.3333H28C28.7364 25.3333 29.3334 25.9303 29.3334 26.6666C29.3334 27.403 28.7364 28 28 28H16C15.2637 28 14.6667 27.403 14.6667 26.6666Z"/>
</svg>
